<?xml version="1.0" encoding="utf-8"?>
<!-- Generator: Adobe Illustrator 24.3.0, SVG Export Plug-In . SVG Version: 6.00 Build 0)  -->
<svg version="1.1" id="Capa_1" xmlns="http://www.w3.org/2000/svg" xmlns:xlink="http://www.w3.org/1999/xlink" x="0px" y="0px"
	 width="800px" height="380px" viewBox="0 0 800 380" style="enable-background:new 0 0 800 380;" xml:space="preserve">
<style type="text/css">
	.st0{fill:#FF0000;}
</style>
<g id="_x31_975_x5F_2022_x5F_And">
	<path class="st0" d="M441.9,101.1l0.3,0.4l0.3-0.7L441.9,101.1l-1.4-1.5l-1.5-1.9l0.5-1.7l2.1-0.5l3.2-1.7l2.7-1.1l3.4-1.3l3.5-1
		l4,0.2l3.9,1.1l3.6,1.6l2.9,2.3l2.2,2.8l0.7,2.6l0.5,2.9l0.8,3.1l1.7,1.6l2.5,0.4l2.8,0.1l2,1.1l1,1.9v1.9l0.7,2.3l1.6,2.6l0.8,2.6
		l1,2.6l1.8,1.9l2.7,0.6l3-0.6l3.1-1.1l3.3-1l3.3-0.9l2.7-1.5l0.8-2.4l-0.5-2.5l-0.4-2.6l0.1-2.5l1-2.1l2-1.3l2.3-0.9l1.4-1.9
		l0.3-2.5l0.7-2.7l0.9-2.6l0.7-2.7l0.7-2.8l1-2.9l1.5-3l2.1-2.7l3-2.2l3.7-1.6l4.1-0.8l4.4,0.1l4.3,0.5l3.9,0.3l2.8,1.3l0.2,2.1
		l-2.3,1.6l-2.7,1.6l-1.2,2.3l0.7,2.5l0.4,2.9l-0.4,3.1l-0.8,3.2l-0.6,3.3l-0.7,3.4l-0.6,3.4l0,3.3l1.6,2.7l2.9,1.4l3.5,0.7l4,0.6
		l3.8,0l3-1.3l2.6-1.5l3.1-0.9l3,0.5l2.7,1.4l2.9,0.8l3.3-0.3l3.3-1.4l2.8-2.1l2.5-1.8l3.3-0.9l3.1,0.1l3,0.2l2.9,0.1l3,0.3l2.6,1.2
		l1.8,2l1.9,2.1l1.6,2.5l1.3,2.6l2.4,1.7l3.2,0.7l3.3,0.7l3,1.5l2.4,2.3l2.2,2.6l2.4,2.6l2.7,2.6l3.6,1.8l4.2,1l4.6,0.2l4.6-0.1
		l4.5-0.2l4-1.2l2.5-2.5l0.9-3.1l0.5-3.3l1.3-3.3l2.1-3l2.6-2.4l3.3-1.2h3.3l2.3,1.5l0.4,2.2l-2,2.1L671,127l-1.2,2.1l0.9,2.3
		l2.1,2.2l2.7,1.8l2.8,1.7l3.2,1.3l3.3,1.5l3.2,1.5l2.4,2.1l0.7,2.7l-0.6,2.6l-1.9,2.1l-3,1.1l-2.9-0.6l-1.9-1l-1.4,0.2l-0.2,0.8
		l0,2.2l-0.4,2.4l-0.2,2.3v1.9l0.2,1.8l0.9,1.5l1.7,0.5l1.7-0.8l1.6-1.3l1.8-1l2.2-0.9l2.4-0.2l2.1,1l0.8,1.9l0.2,2.2l-0.1,2.3
		l0.1,2.3l1.2,1.4l2.1,0.4l2.5,0l2.6,0l2.8,0.1l2.3,0.5l2.9,0.7l2.8,1l2.4,1.4l1.3,2l0.5,2.1l0.8,1.6l2.1,0.7l2.4,0.3l2.6,0.9
		l2.3,1.4l2,1.6l1.9,1.7l1.9,1.9l1.5,2.1l1.5,2.2l1.8,1.9l1.9,1.8l1.6,2l0.8,2.3l-0.4,2.5l-2.2,1.6l-2.8,0.3l-2.3,0.6l-1,1.8
		l0.5,1.6l1.8,1.3l2.4,1.1l2.5,1l2.5,1.2l2.6,1.4l2.7,1.5l2.7,1.8l2.1,2.1l1.2,2.6l1.2,2.8l1.5,2.8l1.7,2.5l2.6,1.4l2.7-0.4l1.7-1.9
		l0.7-2.5l-0.1-2.8L766,223l-1.5-2.4l-1.7-2.2l-1.6-2.2l-0.9-2.1l0.9-1.5l2-0.2l2.3,0.1l2.2-0.4l1.6-1.6l-0.5-1.7l-1.3-1.5l-1.7-1.9
		l-0.4-1.7l0.7-1.2l0.1-1.3l-0.8-1.5l-1.6-1.1l-2.1-1.1l-2.1-1.3l-1.6-1.7l-1-2l-0.2-2l-1-2.4l-1.5-2.5l-1.2-2.5l-0.6-2.3l-2-1.6
		l-2.1-0.8l-1.8-0.9l0.4-0.6l1.5-0.7l1.4-1.4l1-1.1l0.3-2.1l-1.4-2l-2-1l-1.9-1l0.6-0.8l1-2l1.7-1.7l2-1.8l2.2-1.5l1.9-1.8l0.5-2.5
		l0.1-2.8l-0.2-2.8l-1.5-2.5l-2-2.3l-2.1-2.2l-2.1-2.1l-0.8-1.7l0.1-0.6l2.1-1.9l2.2-0.4l1.9,1.2l1.4,1.5l1.9,1.1l2.6,1.1l2.4,1.5
		l1.9,1.8l2.1,2l1.7,2.3l0.2,2.6l0,2.5l0.5,2.7l1.4,2.5l2.3,1.8l2.5,0.1l3.2-0.2l2.8,1.1l2.2,1.1l2.9,2.1l0.9,2.1l0.1,2.8l-0.7,2.9
		l-1.5,2.8l-1.6,2.6l0.4,2l1.9,0.8l2.5,0.6l2.8,0.4l2.7,0.7l1.6,1.6l-0.3,1.9l-2.1,0.9l-2.4,0.1l-1.6,0.7l0,1l1.6,0.8l2.1,0.5
		l2.2,0.5l1.1,1l1.1,1.5l0.7,0.9l2.2,1.8l0,1.6l-1.4,1.3l-1.5,1.1l-1,1.5l-0.5,1.8l-0.3,2.1l-0.4,2.2l-0.7,2.3l-1.6,2.3l-1.8,2.3
		l-1.4,2.6l-0.7,2.7l0.1,2.7l0,2.8l-1.6,2.6l-2.3,2.2l-2.1,2.4l-2.3,2.4L777,237l-2.7,1.6l-2.3,1.2l-0.8,1.7l-1.6,1.2l-2.1,0
		l-2.3-0.7l-2.4-1l-2.5-1.3l-2.7-1.6l-2.7-1.8l-2.8-2l-2.8-2.2l-2.3-2.7l-1.6-2.9l-1.3-2.9l-1.7-2.6l-2.4-2.1l-2.9-1l-3.2,0.3
		l-2.8,1.3l-2.8,1.8l-2.3,2.3l-0.7,2.5l-0.9,1.8l-1.9,1l-2.4-0.4l-2.6,0.3l-2.3,0.9l-2.7,0.3l-1.2-1.7l-1.5-2l-1.6-2.2l-2.8-1.3
		l-4,0.5l-0.6,1.2l1.6-0.3l1.6,1.6l1.5,2.8l1.8,1.1l-2.8,2.4l-1.7-0.8l-2.6-0.9l-2.8-1.6l-4-1l-3.3-0.2l-2.5,1.5l-0.5,2.4l1.6,2.4
		l2.1,1.2l3.3,0.5l2.1,1.4l1.2,2.2l1.6,1.4l1.9,1.4l2,1.4l1.2,1.5l-0.8,1.3l-1.9-0.2l-2.1-0.8l-2.3-0.8l-2.2-0.4l-2.1,0.3l-1.2,0.7
		l0.4,1.3l1.7,0.9l0.7,1.5l-0.5,1.7l0.1,0.9l2.3,0.3l2.3,0.2l2.1,1.1l1.4,1.9l1.8,1.1l2.1-0.1l2.2-0.8l2.4-1.3l2.5-1.6l2.5-1.6
		l2.1-1.4l1.8-1l1.4,0.3l0.1,1.5l-0.1,2.1l0,2.3l-0.1,2.3l-0.7,2.3l-1.3,1.9l0,1.5l1.6,1l1.8,1.1l1.3,1.7l1.8,1.4l1.8,1.2l1.7,1.5
		l1,2.1l0.9,2.4l0.9,2.6l0.7,2.8l0.6,3l0.5,2.9l0.5,2.6l1.1,1.9l1.8,1l1.9,1.2l1.3,2l1.2,2.1l1.3,2.3l1.1,2.5l1,2.8l0.9,3l0.9,3.1
		l1.3,3l2.5,2.4l2.9,2.1l2.9,2.2l2.5,2.3l1.5,2.8l-0.8,2.9l-2.3,2.4l-2.4,2.5l-3.1,2.5l-3.9,0.4l-2.5-1.8l-0.9-2.8l-0.7-2.9
		l-1.6-2.7l-2.7-1.8l-3.5-0.5l-3.8,0.6l-3.6,1.3l-3.5,1.7l-3.6,1.4l-3.8,0l-2.6-1.7L713,324l-1-2.7l-1.2-2.8l-2.5-2.3l-3.5-2.3
		l-4.3-1.7l-4.8-0.8l-4.8-0.1l-4.8-0.1l-4.6-0.2l-4.3,0.3l-2.9,1.4l-1.2,2.1l-0.6,2.4l-2.3,1.4l-1.1-0.3l-2.3-1l-3.4-0.4l-2.8-1.3
		l-3.2-0.6l-3.3,0.1l-3.4,0.5l-3.6,0.2l-3.5-0.1l-3.1,0.3l-3,0.5l-2.8-0.4l-1.3-1.7l-0.5-2l-0.6-2.1l-0.7-2.1l0.4-1.9l1.9-1.2l2.6-1
		l2.2-1.8l0.7-2.1l6-2.2l6.3-9.2l24.4-1.5l5.6-3.2l7.4,1l-0.3-1.5l-5.7-3.9l3.1-1.6l1.2-1.9l-0.4-2.3l8.4-3.3l-2.4-1.6l-5.7,0.5
		l-0.4-4.7l-4.6-3.7l-4.4,0.2l-1.9-5.7l-4.4,2.5l-10.1-0.9l-7-1.7l-1.2,2.7l-2.7,1.8l0.9,2.2l2.3,3.5l1.1,4.9l-4.3,6.1l-2,10.5
		l-12.2,10l-2.2-1.6l-7.1-0.2l-2.2-1.6l3.3-3.6l-2.4-2.6l-5.1-5.5l2.5-5.4l-1.7-3.9l-4.3,8.7l2.8,4l4,3.2l0.2,2.7l-1.6,1.8l-1.1,2.3
		l-0.7,2.5l1.7,5.5l-3-0.8l-2.9-0.5l-3.7,0l-3.6,0.5l-9.1,2.2l-6.6,0.2l-4.1-1.6l-2.9-1l-2.5,0.9l-0.9,1.5l0.6,2.3l1.9,2.2l1.3,2.6
		l-1.8,1.8l-3,0l-2.9-1.5l-2.9-1.8l-3.2-1.7l-3.5-1.5l-3.5-1.4l-3.7-1.2l-3.6-1.4l-3.3-1.9l-2.4-2.7l-1.9-3.1l-2.1-3.1l-2.6-2.8
		l-3.2-2.3l-3.6-1.7l-3.6-1.4l-3.6-1.5l-3.3-1.5l-2.9-0.7l-2.1,0.8l-6.3,2.7l-7.8,3.4l-2.7,1.1L504,290l-3.3,0.9l-4-0.6l-3.7-2.1
		l-2.4-1.8l-3.6,0.3l-2.6,2.8l-1.6,2.2l-2.5,0.8l-4,0.6l-4.2-0.2l-3.2-0.6l-5.7-0.9l-14-0.5l-2.6,0.3l-2.2-0.8l-2,0.3l-1.7,1.1
		l-2.3,0.4l-3,2.2l-3.7,2.6l-19.3,11.6l-3.3,1.6l-3.3,1.9l-3.8,1.7l-3.5,0.6l-3,1.5l-1.2,2.6v2.9l0.7,2.5l2,3.1l2.9,3.8l1.4,3l0.8,3
		l0.3,3.5l-0.7,3.4l-0.2,3.1l-1.4,2.4l-2.9,0.6l-3.1-0.5l-3.3-0.1l-3.7,0.9l-1.5,1.5l-0.3,2.4l0.4,2.7l0.3,2.7l0.1,2.9l0.3,2.9
		l0.5,2.9l-0.2,3l-2.2,2.1l-3.3,0.9l-3.6,0.2l-3.8,0.5l-3.5,0.8l-3.8,1l-3.5,0.9l-3.5,1.2l-3.3,0.2l-2.3-1.4l-0.5-2.2l0.2-2.3
		l-0.5-2.1l-1.8-1.4l-2.4-1.4l-2.2-1.7l-2-1.9l-1.5-2.2l-0.5-2.3l1.4-1.7l1.2-1.6l-0.1-2.5L345,352l0.6-2l0.4-2.4l-0.6-2.7l-0.8-2.5
		l-1-2.4l-0.9-2.5l-1-2.5l-1.8-1.8l-2.5-0.6l-2.7,0.1l-2.4,0.1l-2.4-1.2l-0.4-1.7l0.5-1.9l-0.8-1.8l-1.6-0.4l-2.4,0.5l-1.4-0.5
		l-1.6-1.4l-2-1.5l-3-0.6l-2.4,0.1l-0.9,0l-0.3,1.9l0.5,2.1l0.4,2.2l0,3.1l-0.2,1.9l-0.3,2.3l-1.4,1.8l-2.1,0.9l-2.3-0.1l-1.1-1.5
		l-0.1-1.9l-1.2-1.6l-2-0.1l-2.3,0.7l-1.8-0.1l-2.3-0.5l-1.7-1.2l-0.9-1.8l-1.6-1.6l-2-0.7l-1.3,0.5l-1,2l-0.6,2.2l-0.2,2.3l0,2.4
		l-0.1,2.3l0.3,2.2l0.3,2.5l-0.6,2.7l-0.9,2.7l0.7,2.6l2.7,1.8l3.3,1.1l1.9,1.9l0.4,2.5l0.3,2.2l-0.6,1.7l-1.8,0l-0.8-1.4l0.3-1.8
		l-0.7-2l-1.9-1.2l-2.4-0.9l-2.1-1.3l-1.1-1.7l-0.8-2.1l-0.9-2.4l-1.6-2.5l-2.4-2.1l-2.3-2.2l-2.1-2.4l-2.3-2.4l-2.7-2.5l-2.8-2.8
		l-2.5-3l-1.6-3.4l0-3.5l0.4-3.4l-0.4-3.4l-0.7-3.2l-1.5-2.7l-2.8-1.6l-3.3-0.7l-2.9-1.3l-0.7-2.3l0.3-2.5l0-2.3l1.3-1.1l1.3,1.1
		l0.4,1.9l0.4,1.8l1.7,1.2l2,0.4l1.9,0.7l1.8,0.6l1.7,0l1.1-1l0.7-1.8l0.4-2.2l-0.3-2.2L265,296L263,295l-1.9-0.7l-1.1-1.4l-0.5-1.7
		l0.1-1.9l-0.6-1.7l-1.5-1.5l-1.3-1.9l-0.8-2l-1.6-1.8L252,279l-1.9-1.2l-2-0.8l-2.3-0.9l-2.5-0.6l-2.7,0.2l-2.8-0.1l-2.8-0.4
		l-2.4,0.2l-1.1,1.2l0.6,1.8l1.1,2l0.3,2.1l-1.2,1.8l-2.3,1.3l-2.7-0.5l-0.6-2l0.2-2.4l-0.8-2.5l-1.6-2.5l-2.3-2.4l-2.9-2.1
		l-3.3-1.6l-3.3-1.7l-2.9-2.1l-1.9-2.6l-1.3-2.7l-1.4-2.9l-1.1-2.9l-1-2.6l-1.8-1.5l-2.6-0.5l-2.9-0.1l-1.6-0.8l-3.2-0.6l-2.5-1.3
		l-2.5-1.6l-2.6-1.8l-1.2-2.5l0.1-2.6l1.6-2.4l1.1-1.9l-0.5-1.6l-2-0.5l-2.4,0.2l-2.9,0.7l-3.1,0.5l-2.8-0.3l-1.6-1.3l-0.2-2
		l0.1-2.3l0-2.4l-0.8-2.5l-1.8-2.1l-2.3-1.7l-2.3-1.3l-2.2-1.1l-1.8-1.3l-1.6-0.9l-1.6,0.3l-1.7,1l-2.1,0.9l-2.2,0.5l-2.4,0.2
		l-2.6,0.1l-2.6,0.1l-2.9-0.1l-2.9-0.6l-3-0.8l-3.1-1.2l-3.2-1.4l-3.1-1.7l-3-2l-3.1-2.2l-3.1-2.4l-3.1-2.6l-3-2.8l-2.6-3.1l-2.8-3
		l-3.1-3l-3-3l-2.7-3.1l-2.1-3.2l-1.6-3.2l-1.1-3.3l-0.7-3.4l-0.4-3.4l-0.2-3.3l0.2-3.2l0.2-3.2l0.1-3.3l0.2-3.5l0.2-3.7l0.2-3.8
		l0-4l-0.1-3.9l-0.1-4.1l-0.1-4.2l0.2-4.3l0.1-4.4l-0.7-4.3l-2.5-3.9l-4.1-3.1l-4.6-2.3l-4-2.7L70,99.8l-1.1-3.6l0.6-3.6l-0.6-3.6
		l-2.3-2.8l-3.4-3.1l-2.5-1.9L58,78.7l-2.7-2.5l-2-2.8l-1.4-3l-1.4-3.1L49,64.1l-1.5-3.3l-1.4-3.4l-1.4-3.4l-1.6-3.3l-2.3-3.2
		L38,44.5l-2.8-3.2l-2.8-3.2l-3-3.1l-3.7-2.4l-4.3-1.3l-4.4-0.8l-3.2-1.4l-2.4-2.6l-1-3L9,20.8l-3-2.1l-3.6-2.4l-0.2-1.7l-0.5-2.9
		V8.8L1,5.8l0.5-2.6l1.6-2L5.5,1l2.7,0.5L10.8,2l2.8,0.6l2.7,0.9L19,4.7l2.6,1.5l2.9,1.5l3.2,1.4l3.4,1.3l3.5,1.2l4.1,1.5l2.9,0.9
		l3.6,0.9l4.5,1.3l2.5,1.2l2.8,2.1l2.1,2.6l0.7,3.2l0.2,3.4l1.3,3.2l2.5,2.8l3.4,2.1l3.8,1.4l3.3,2.1l2.8,2.1l3.1,1.2l3.2,0.9l3,1.3
		l2.8,1.7l2.9,1.8l3.3,1.7l3.6,1.5l3.9,1.4l3.9,1.4l3.4,2l2.7,2.5l2.5,2.7l2.5,2.8l2.3,3l2.2,3l2.2,2.9l2.5,2.6l3.1,1.5l2.8-0.3
		l0.9-1.7l-1.5-1l-1-2.7l0.2-2.8l0.7-2.7l1.2-3.3l1.3-2.3l1.2-2.2l1-2.3l1.1-2.4l1.4-1.6l2.7-2l3.1-0.4l3.1,0.1l3.1,0.6l2.8,1.3
		l2.2,1.8l2,1.9l2.2,1.7l2.7,1.4l2.9,0.8l3.2,0.8l3.2,0.8l3.3,0.5l3.3,0.1l3.1-0.8l1.9-2l0.2-1.7l0.7-2.9l1.6-0.8l3-1.5l2.2,0.1
		l5.6,1l1.4-0.3l3.2,1.4l3.5,1.5l3.6,1.5l3.3,1.9l2.8,2.4l2.2,2.5l2.4,2.4l3.1,1.9l3.7,1.5l3.9,1.3l4,1.2l4.1,1.1l4.2,0.7l4.4,0
		l4.1-1.2l3.7-2.1l3.8-2l4.1-1l3.9,0.1l3.6-0.2l3.5-0.1l3.7-0.3l3.8-0.4l3.8,0l3.6,0.6l3.6,0.9l3.2,0.8l3.3,0.2l3.5,0.1l3.5,0.6
		l3.4,0.7l3.4,0.6l3.3,0.4l3.2,0.4l3.2,0.3l3.1,0.5l2.8,0.5l2.9,0.2l3-0.1l3.2-0.3l3.4-0.6l3.4-0.8l3.5-0.3l3.3,0.4l2.4,1.5l0.5,2.2
		l-1.9,1.7l-3.2,1l-3.5,1.1l-3.5,1.5l-2.6,2.2l-0.4,2.8l2.1,2.1l3.3,1.2l3.3,1.4l3.2,0.8l-1.4-1.6l2.4-1.8l6.1-1l2.9-0.4l-0.3,0.8
		l1.9,1.5l0,2.2l0.3,2.8l2.4,1.5l4.9,0.6l3.6-0.8l3.3-1.3l3.1-1.5l3.4-1.1l3.4-0.6l2.6-1.3l1.8-2.1l1.8-2.3l2.3-2.2l3.2-1.3l3.7-0.2
		l3.9,0.2l4,0.3l4.2,0.8l3.9,1.2l3.2,1.9l1.1,2.7l-0.8,2.5l0,2.1l1.5,0.9l2.6,0l2.8,0.4l2.7,1.1l1.7,1.6l1.7,1.3l3.6,2.1l3.7,0.5
		L441.9,101.1z"/>
</g>
</svg>
